<?xml version="1.0" encoding="UTF-8" standalone="no"?>
<!-- Created with Inkscape (http://www.inkscape.org/) -->

<svg
   version="1.1"
   id="svg1"
   width="1908.9773"
   height="1732.2764"
   viewBox="0 0 1908.9773 1732.2764"
   xmlns="http://www.w3.org/2000/svg"
   xmlns:svg="http://www.w3.org/2000/svg">
  <defs
     id="defs1" />
  <path
     id="path60"
     style="fill:#000000;stroke:none;stroke-width:1.33333"
     d="m 1420.666,0 -13,0.38085938 -13,0.3828125 -0.3398,115.66601812 -0.3418,115.66601 H 1411.9922 1430 v -38.41797 -38.41992 l 4.7109,-2.24804 c 5.4974,-2.62156 18.9319,-2.94817 22.0723,-0.53711 4.8404,3.71639 5.2168,6.86519 5.2168,43.53711 v 36.08593 h 18.1504 18.1504 l -0.6582,-41.66601 c -0.4002,-25.30157 -1.2497,-43.56122 -2.1641,-46.49024 -4.1767,-13.37924 -13.4793,-19.97433 -29.4765,-20.90039 -11.1005,-0.6426 -27.673,2.72528 -37.9922,7.72071 -3.0346,1.46903 -5.93,2.66992 -6.4317,2.66992 -0.5019,0 -0.9121,-30.02167 -0.9121,-66.714846 z M 1291.332,0.09570312 V 47.763672 h -0 v 47.666016 h 10.336 H 1312 l 0.666,-24 0.668,-24 5.7168,-1.976563 c 5.0797,-1.755918 6.1246,-1.75035 9.334,0.04883 l 3.6132,2.025391 0.6661,23.951172 c 0.3667,13.173226 1.1179,23.800527 1.6679,23.617187 0.55,-0.18333 5.5437,-0.332031 11.0977,-0.332031 h 10.0976 l -0.4316,-27 c -0.4691,-29.344601 -1.1146,-32.30551 -8.1953,-37.546875 -5.3659,-3.971986 -19.385,-3.837517 -27.1836,0.261719 -3.0875,1.622858 -5.9361,2.951172 -6.332,2.951172 -0.3958,0 -0.7207,-7.499355 -0.7207,-16.666016 V 0.09570312 h -10.6661 z m -51.998,9.33398438 v 9.2539065 9.251953 l -4.8262,0.414062 -4.8262,0.414063 -0.1738,7.667969 -0.1738,7.666015 h 4.8789 l 4.8809,-0.002 0.4531,20.572266 c 0.5063,22.993887 1.4807,25.801876 10.5488,30.425781 4.6704,2.381498 13.8572,2.975867 22.9043,1.480469 l 5,-0.826172 v -8.552735 -8.552734 l -4.6582,0.873047 c -2.5618,0.48069 -6.1618,0.496506 -8,0.03516 L 1262,78.712891 V 61.404297 44.095703 h 8 8 v -8 -8 h -8 -8 V 18.763672 9.4296875 h -11.334 z m 465.332,0 v 9.3339845 9.332031 h -4.666 -4.666 v 8 8 h 4.666 4.6641 l 0.01,17 c 0,9.349991 0.6642,19.366786 1.4668,22.257813 1.6046,5.779384 7.6324,12.250019 12.2422,13.142578 4.7936,0.928129 14.579,0.966104 19.9512,0.07813 l 5,-0.826172 V 87.28125 78.814453 l -5.9824,0.820313 c -9.4515,1.295468 -10.0176,0.216914 -10.0176,-19.035157 V 44.095703 h 8 8 v -8 -8 h -8 -8 V 18.763672 9.4296875 H 1716 Z M 1218,26.466797 l -5,0.925781 c -5.9892,1.110409 -12.6779,5.027451 -16.1699,9.466797 -1.4009,1.780948 -2.9111,3.236328 -3.3555,3.236328 -0.4445,0 -0.8086,-2.700003 -0.8086,-6 v -6 h -10 -10 V 61.373047 94.650391 L 1183,95.041016 c 5.6833,0.214089 10.784,0.203172 11.334,-0.02344 0.55,-0.22661 1,-9.61172 1,-20.855469 V 53.71875 l 5.0488,-2.019531 c 2.7775,-1.111319 7.8781,-2.444651 11.334,-2.962891 L 1218,47.792969 v -10.66211 z m -92.8262,0.699219 c -19.6716,0.394153 -33.8398,14.095364 -33.8398,34.265625 0,4.871195 0.9195,11.558451 2.0449,14.861328 2.478,7.272382 11.2678,16.276371 18.627,19.080078 8.6588,3.298807 23.8187,2.074101 32.4453,-2.621094 12.7507,-6.939783 18.3553,-18.126732 17.207,-34.347656 -1.1724,-16.562124 -11.388,-27.820182 -27.7422,-30.574219 -3.0095,-0.506804 -5.9319,-0.72037 -8.7422,-0.664062 z m 660.1602,0.111328 c -6.252,-5.24e-4 -12.5037,1.096491 -16.9981,3.292968 -7.5825,3.705727 -14.6656,11.582339 -16.789,18.669922 -2.1823,7.283353 -1.9201,19.952329 0.5625,27.238282 2.5978,7.624532 10.8095,16.080523 18.2929,18.83789 8.9988,3.315717 24.0563,2.148406 32.6543,-2.53125 15.0235,-8.176752 21.0539,-24.661535 15.6485,-42.779297 -2.5494,-8.545731 -8.4675,-15.569004 -16.3711,-19.43164 -4.4957,-2.197383 -10.748,-3.296352 -17,-3.296875 z m -122.4063,0.06445 c -5.9416,0.535294 -11.8753,2.496849 -15.6718,5.691406 l -3.9219,3.300781 v -4.11914 -4.119141 H 1632.666 1622 v 33.111328 c 0,18.211102 0.2466,33.362419 0.5488,33.667969 0.3022,0.30554 5.4029,0.35831 11.334,0.119141 l 10.7832,-0.433594 V 71.492188 c 0,-25.723985 0.02,-25.782448 9.127,-27.003907 4.1487,-0.556469 5.815,-0.116704 8.0527,2.121094 2.6517,2.651767 2.8203,4.182939 2.8203,25.486328 v 22.667969 h 11.4727 11.4726 l -0.5136,-26.333984 c -0.555,-28.471562 -1.7375,-33.825644 -8.4512,-38.22461 -3.8272,-2.507717 -9.7771,-3.398576 -15.7188,-2.863281 z m -136.3535,0.0293 c -16.3845,-1.754638 -31.9667,3.821888 -38.5527,13.798828 -6.2465,9.46275 -7.5348,26.864383 -2.8242,38.138672 2.6895,6.436733 11.0901,13.916863 18.0351,16.05664 7.5006,2.310938 19.6078,2.562004 27.5098,0.572266 l 5.9238,-1.490234 v -8.664063 c 0,-8.368762 -0.1022,-8.63376 -3,-7.744141 -1.65,0.50655 -5.8416,1.253404 -9.3164,1.658204 -12.2996,1.432818 -18.7305,-4.610896 -18.7305,-17.601563 0,-14.083266 7.5033,-19.812585 22.4063,-17.111328 l 7.3086,1.324219 v -9 -9 z m 347.3672,0.05859 c -7.6345,-10e-7 -9.7849,0.58568 -15.7266,4.279296 l -6.8808,4.277344 v -3.945312 -3.945313 h -10 -10 v 33.277344 33.277344 l 10.332,0.390625 c 5.6833,0.214089 10.784,0.203172 11.334,-0.02344 0.55,-0.22661 1,-11.118168 1,-24.203125 V 47.023438 l 4.1992,-1.462891 c 6.2742,-2.187178 8.9124,-1.806463 12.5274,1.808594 3.2157,3.214926 3.2734,3.667537 3.2734,25.666015 v 22.394532 h 10.7578 10.7578 l -0.4238,-28.0625 c -0.3646,-24.099716 -0.7576,-28.569801 -2.7773,-31.648438 -4.0812,-6.220894 -8.6643,-8.289062 -18.3731,-8.289062 z m -814.6094,0.07422 c -7.861,0.0634 -10.0834,0.660118 -15.9023,4.277344 l -6.7637,4.205078 v -3.945312 -3.945313 h -10 -10 V 61.373047 94.650391 L 1027,95.041016 c 5.6821,0.213975 10.7802,0.203133 11.3301,-0.02344 0.55,-0.22661 1,-11.130642 1,-24.230469 V 46.970703 l 4.6719,-1.542969 c 6.2933,-2.077018 11.9324,-0.663585 13.8125,3.462891 0.935,2.052078 1.5175,11.62468 1.5175,24.935547 v 21.603516 h 10.666 10.6661 V 68.763672 c -0,-22.752927 -0.343,-27.337375 -2.3321,-31.238281 -3.9174,-7.682483 -8.5119,-10.105985 -19,-10.021485 z m 518.002,0.02539 c -6.6,-0.04941 -14.8507,0.393919 -18.334,0.986328 l -6.334,1.078125 v 8.373047 8.373047 L 1559,45.298828 c 12.7647,-2.101088 18.8207,-1.501531 22.5566,2.234375 1.9141,1.914118 2.9217,3.925929 2.2735,4.542969 -0.64,0.609279 -6.369,1.313733 -12.7324,1.564453 -9.1265,0.3596 -12.3484,1.03658 -15.252,3.205078 -5.6507,4.219946 -8.6365,8.947575 -9.4414,14.949219 -1.5808,11.786048 2.8309,20.287789 12.2617,23.628906 9.0417,3.203267 18.8002,1.852959 24.416,-3.378906 l 2.9395,-2.738281 3.207,3.728515 c 2.7675,3.217377 4.1824,3.72761 10.3223,3.72461 10.6844,-0.0057 11.7832,-0.793742 11.7832,-8.464844 0,-5.431665 -0.4576,-6.673924 -2.668,-7.251953 -2.4967,-0.65289 -2.6673,-1.830948 -2.6953,-18.488281 -0.036,-21.858849 -1.8895,-27.304017 -10.8711,-31.951172 -4.6618,-2.411998 -8.0652,-3.001519 -17.7656,-3.074219 z m -452.0078,16.808594 c 2.768,-0.366698 5.7591,0.637983 8.6152,3.49414 6.6953,6.695274 6.6203,21.945819 -0.1426,29.144531 -3.2622,3.472497 -9.876,4.184453 -13.5,1.453126 -1.2163,-0.91667 -3.132,-3.89661 -4.2558,-6.623047 -5.3238,-12.914732 0.9792,-26.368658 9.2832,-27.46875 z m 661.6484,0.08398 c 4.0673,0.731982 7.8658,4.305647 9.6035,11.207031 2.0137,7.996802 0.7391,15.489837 -3.4883,20.513672 -3.6346,4.319636 -10.0499,5.358386 -14.125,2.28711 -3.0672,-2.311678 -6.2988,-10.655138 -6.2988,-16.263672 0,-12.294269 7.5298,-18.964111 14.3086,-17.744141 z m -208.5684,21.785156 c 5.577,-0.10938 5.5943,-0.09423 6.0235,5.169922 0.3146,3.858246 -0.2014,5.743291 -1.9199,7 -2.9588,2.163538 -10.1284,2.232989 -12.2422,0.119141 -2.2638,-2.263728 -1.9857,-8.418817 0.4726,-10.458985 1.14,-0.946119 4.5895,-1.769678 7.666,-1.830078 z m -494.125,56.546879 c -11.3327,-0.42551 -22.3915,3.34281 -30.9101,10.82226 l -4.7051,4.13086 v -6.13867 -6.13867 h -16 -16 v 74.66601 74.66797 h 17.334 17.334 v -24 c 0,-13.19998 0.239,-24 0.5312,-24 0.2922,0 3.9525,1.8 8.1348,4 6.4122,3.37301 9.1124,4 17.2305,4 12.587,0 20.5408,-2.85557 28.9043,-10.375 11.639,-10.46446 17.4422,-22.88895 19.1347,-40.95898 2.6912,-28.73489 -9.5283,-52.98494 -29.6484,-58.83399 -3.7547,-1.0915 -7.5623,-1.69996 -11.3399,-1.84179 z m 474.3126,0.12109 c -6.1018,-0.0805 -12.2449,0.33426 -16.3165,1.27344 -27.0332,6.23572 -44.069,31.54314 -41.0527,60.98242 2.3915,23.34207 14.5555,39.71086 34.8496,46.89844 6.6397,2.35134 10.3151,2.73623 22.6426,2.36328 13.1869,-0.39895 15.6427,-0.87908 23.6309,-4.61719 11.8401,-5.54071 21.2706,-14.55288 26.6406,-25.46094 3.8106,-7.74051 4.3534,-10.26715 4.7988,-22.30078 1.1295,-30.51377 -12.3353,-50.28239 -39.1211,-57.4375 -3.9102,-1.0445 -9.9705,-1.62065 -16.0722,-1.70117 z M 1234,123.45898 c -12.0093,0.0171 -23.879,0.75546 -28.334,1.76172 l -7.666,1.73242 v 13.32813 c 0,12.07172 0.2207,13.26291 2.334,12.62891 1.2834,-0.385 7.6762,-1.39569 14.207,-2.24414 17.7893,-2.31113 28.3558,-0.1826 31.3125,6.30664 3.0037,6.59244 2.6308,6.77018 -15.5195,7.37695 -13.3643,0.44677 -18.2832,1.14747 -23,3.2793 -14.5438,6.57329 -20.5332,16.23136 -20.5332,33.10547 7e-4,9.22201 0.5221,11.65245 3.7812,17.63867 4.1134,7.55547 11.027,12.99564 19.0899,15.02343 12.1149,3.04688 29.8659,-0.67864 37.3008,-7.82812 l 2.9726,-2.85938 5.2656,5.26368 c 4.1014,4.10136 6.6818,5.47846 11.6836,6.22851 5.6407,0.84588 20.2482,-1.0061 23.4239,-2.96875 0.5582,-0.34504 1.0156,-5.39147 1.0156,-11.21484 v -10.58789 h -3.8574 c -2.2874,0 -4.1881,-0.85871 -4.668,-2.10938 -0.4451,-1.15997 -0.8086,-14.253 -0.8086,-29.0957 0,-30.29716 -1.0928,-35.96135 -8.3926,-43.47852 -2.3504,-2.4203 -7.5741,-5.95561 -11.6074,-7.85742 -6.9197,-3.26279 -8.4991,-3.45759 -28,-3.42969 z m 620.666,0.002 c -13.2524,0.0271 -15.391,0.38283 -22.1894,3.69531 -13.3737,6.51637 -23.2975,20.24001 -26.5352,36.69727 -1.7708,9.00038 -1.0884,28.32715 1.2793,36.26171 4.2965,14.39794 16.8611,27.1879 31.4453,32.00782 h 0 c 11.0914,3.66557 37.1234,3.02948 50.332,-1.23047 l 9,-2.90235 v -13.28125 c 0,-7.30386 -0.45,-13.2777 -1,-13.27734 -0.55,3.7e-4 -4.2986,1.27823 -8.332,2.83984 -10.4872,4.06043 -30.8964,4.9247 -37.3067,1.58008 -5.041,-2.63029 -10.6933,-10.00423 -10.6933,-13.95117 0,-2.33218 1.7044,-2.4707 30.666,-2.4707 H 1902 l -0.027,-8.33203 c -0.091,-28.82335 -8.6688,-46.58437 -26.4766,-54.81836 -5.1313,-2.37268 -8.6188,-2.84326 -20.8301,-2.81836 z m -87.332,0.002 c -13.2022,0.0291 -16.3155,0.47271 -22.3926,3.18945 -8.3503,3.73299 -15.7154,11.76082 -17.7754,19.37305 -0.8035,2.97227 -1.1794,9.39707 -0.834,14.27734 1.0404,14.69861 7.6369,22.28385 25.9844,29.87696 14.6184,6.04985 18.5471,11.64271 12.209,17.37695 -2.2092,1.99863 -4.6951,2.50994 -11.666,2.40234 -7.9767,-0.12313 -11.6618,-1.10014 -24.5254,-6.50195 -2.1332,-0.89578 -2.334,0.17923 -2.334,12.5293 0,15.17945 -0.2803,14.79554 12.666,17.4082 2.9333,0.59196 11.1302,1.14226 18.2149,1.22266 26.6935,0.30275 41.6293,-9.02715 45.1777,-28.22266 1.6072,-8.6943 -0.086,-18.17554 -4.3652,-24.45117 -3.4496,-5.05901 -12.513,-11.26501 -22.3594,-15.30859 -11.1849,-4.59328 -14.668,-7.42252 -14.668,-11.91602 0,-2.54993 0.9443,-4.36753 2.7793,-5.34961 4.4299,-2.3708 17.421,-1.69349 25.3555,1.32227 3.96,1.50506 7.3499,2.73791 7.5332,2.73828 0.1834,3.6e-4 0.332,-5.93904 0.332,-13.19922 V 127.0293 l -7,-1.79883 c -3.9456,-1.01438 -13.6893,-1.78668 -22.332,-1.76758 z M 1130,124.0957 v 46.2461 c 0,43.35507 0.1653,46.58587 2.6387,51.69531 2.612,5.39547 7.6313,9.35545 14.4843,11.42578 5.1698,1.56178 21.1736,1.28533 28.877,-0.5 l 6.666,-1.54492 0.3809,-11.99414 0.3789,-11.99414 -6.752,0.46484 C 1165.5222,208.66196 1166,210.59705 1166,164.59961 V 124.0957 h -18 z m 147.7949,1.25586 0.9629,3.03906 c 0.5289,1.67168 9.2348,27.00163 19.3477,56.28907 14.3175,41.46359 18.0936,53.80092 17.0566,55.73828 -3.8024,7.10493 -17.4593,9.80797 -28.9941,5.73828 l -5.502,-1.94141 v 14.4961 c 0,10.3144 0.4822,14.70897 1.668,15.23437 0.9167,0.4061 9.1653,0.58192 18.332,0.39063 14.0433,-0.29307 17.7595,-0.83221 23.6035,-3.42969 8.3409,-3.7073 18.7147,-14.24333 23.6895,-24.06055 1.9594,-3.86679 11.3823,-29.61677 20.9394,-57.22265 9.557,-27.60589 18.4821,-53.34337 19.834,-57.19336 l 2.4571,-7 -16.9278,0.0176 -16.9277,0.0156 -10.6133,33.98438 c -5.8364,18.69093 -10.935,33.97067 -11.332,33.95507 -0.3968,-0.0156 -5.5386,-15.16693 -11.4258,-33.66796 l -10.7031,-33.63868 -17.7325,-0.37109 z m 340.0039,0.0781 0.541,41.66601 c 0.5875,45.2112 1.0681,48.62218 7.9317,56.43946 4.8082,5.47631 9.742,8.27098 17.4961,9.91211 12.5787,2.66222 26.8143,-0.61776 38.5664,-8.88868 l 6.332,-4.45703 v 5.99805 5.99609 h 16.668 16.666 v -53.33203 -53.33398 h -18 -18 v 37.96875 37.9707 l -3.6035,2.36133 c -2.5647,1.68047 -6.2489,2.36028 -12.7793,2.36328 -8.4014,0.003 -9.4473,-0.31288 -12.3965,-3.73828 L 1654,198.61523 v -36.59375 -36.59179 h -18.0996 z m 236.9024,24.07617 c 2.7156,-0.13306 5.4809,0.28425 7.373,1.29687 3.2397,1.73384 6.5918,8.12197 6.5918,12.56055 v 3.40039 h -14 c -13.2242,0 -14,-0.15098 -14,-2.73242 0,-3.85469 3.4511,-10.06383 6.957,-12.51953 1.6968,-1.18847 4.3625,-1.8728 7.0782,-2.00586 z m -788.2168,0.35156 c 5.6909,-0.56678 7.6386,-0.14991 11.5156,2.46289 7.553,5.09016 10.0105,11.62838 9.9395,26.44336 -0.071,14.77091 -2.546,21.40704 -9.8028,26.28711 -5.0987,3.42876 -10.4456,3.7708 -17.8164,1.14063 -9.1779,-3.27504 -8.9863,-2.67801 -8.9863,-28.22461 v -23.13477 l 4.1504,-2.14648 c 2.2825,-1.18033 7.2325,-2.4529 11,-2.82813 z m 490.5761,0.008 c 4.5733,-0.14336 9.2992,1.73672 13.3125,5.92579 5.5551,5.79823 8.5198,19.58722 6.6094,30.74023 -1.6376,9.56017 -4.2604,13.99885 -10.9687,18.56445 -10.2379,6.96784 -22.5657,0.61588 -26.5215,-13.66601 -1.8837,-6.8025 -1.8927,-18.47655 -0.019,-25.33399 2.7686,-10.13604 9.9657,-15.99153 17.5878,-16.23047 z m -316.1953,34.23047 h 6.4688 v 9.85547 9.85547 l -5.3613,2.14453 c -7.6957,3.07922 -12.8396,2.73274 -16.6993,-1.12695 -3.7209,-3.72088 -4.1676,-8.46495 -1.3144,-13.98242 2.3225,-4.49125 7.9716,-6.7461 16.9062,-6.7461 z" />
  <path
     id="path32"
     style="fill:#d18429;fill-opacity:1;stroke-width:1.33333"
     d="m 3.4e-4,0.38234 0.21484,7.33203 c 0.85272,29.17657 7.26853,98.64141 13.11524,142 20.35933,150.98276 58.01537,303.46086 108.66211,440 149.99407,404.37086 410.05502,690.09953 761.34182,836.48433 l 19.332,8.0566 0.3398,-133.164 c 0.1869,-73.2401 0.1869,-193.394 0,-267.0098 l -0.3398,-133.84757 -40,9.0234 c -69.4834,15.6737 -80.7696,18.5258 -104.666,26.4531 -30.7622,10.205 -40.0747,14.3772 -133.334,59.7481 -43.6333,21.22757 -79.5571,38.39447 -79.832,38.14837 -0.8231,-0.7366 16.3126,-25.515 28.5097,-41.22457 48.8974,-62.9793 115.2769,-124.7929 182.293,-169.7558 37.4036,-25.0951 92.2843,-54.87274 130.6992,-70.91606 l 17.002,-7.10157 -0.336,-372.11328 -0.3359,-372.11328 h -451.332 z m 324.50391,190 c 0.635,0 1.5288,2.33055 1.9844,5.17969 1.2587,7.87141 11.8062,27.75393 19.9472,37.59961 16.9183,20.46087 42.8516,34.06487 74.8204,39.25 15.6936,2.5455 46.0278,2.50874 61.9667,-0.0762 42.9149,-6.95979 77.3444,-31.13007 94.9473,-66.6543 l 5.6172,-11.33789 3.0254,2.8418 c 4.0796,3.8326 11.876,20.02779 14.3769,29.86328 7.219,28.38918 1.7422,55.82136 -16.623,83.26172 -19.3031,28.84179 -49.1904,47.70061 -88.9082,56.10156 -17.1978,3.6376 -55.4245,4.68454 -73.9277,2.02539 -45.4065,-6.52545 -82.1197,-27.31186 -103.7403,-58.73633 -5.8593,-8.51626 -14.244,-26.63913 -16.623,-35.93164 -2.6427,-10.32225 -2.5956,-28.25558 0.1035,-39.30273 3.6107,-14.77841 18.9227,-44.08399 23.0332,-44.08399 z" />
  <path
     id="path1"
     style="fill:#14a2d0;fill-opacity:1;stroke-width:1.33333"
     d="m 1004.6663,298.38234 v 439.42188 c 0,417.88418 0.115,439.38838 2.334,438.70108 1.2833,-0.3975 25.1333,-6.1402 53,-12.7617 104.2098,-24.7617 92.8401,-20.0874 269.6661,-110.8848 18.5165,-9.508 33.668,-16.7614 33.668,-16.1191 0,2.1536 -20.6879,32.7991 -33.9611,50.3086 -64.7273,85.386 -147.333,158.2868 -239.4627,211.3281 -17.1524,9.8751 -64.1191,33.3334 -77.5763,38.7461 l -7.6679,3.084 v 195.8437 195.8438 l 3,-0.9434 c 1.65,-0.5193 13.2013,-5.2947 25.668,-10.6113 127.8148,-54.5091 238.6891,-124.128 344.666,-216.418 27.2021,-23.6888 94.4819,-91.085 118.916,-119.1211 165.1302,-189.4736 283.5751,-426.76317 354.2754,-709.75184 27.9838,-112.00913 47.9103,-235.47522 54.7695,-339.33399 0.7507,-11.36665 1.7374,-24.41666 2.1914,-29 l 0.8243,-8.33203 h -452.1543 z m 449.9122,188.78516 c 14.0356,0.003 28.2103,0.79446 37.418,2.37305 42.7635,7.33143 77.5409,28.0616 98.2812,58.58593 6.8337,10.05761 13.7784,24.87068 16.3476,34.86914 4.7459,18.46844 1.439,42.429 -8.6543,62.71875 -6.0834,12.2292 -14.2851,23.30383 -15.1797,20.4961 -0.3204,-1.00575 -1.8372,-5.75656 -3.3711,-10.55664 -4.0453,-12.65874 -11.3793,-24.40017 -22.6894,-36.32422 -16.4626,-17.35625 -37.6154,-28.37632 -64.9629,-33.84375 -16.6993,-3.33861 -55.4042,-3.3276 -71.1016,0.0195 -43.7871,9.33662 -73.75,31.33273 -91.4062,67.10156 l -5.6153,11.375 -3.9726,-5.80078 c -12.6241,-18.42786 -18.7412,-44.90694 -15.1446,-65.56055 6.2516,-35.89918 30.1597,-68.22513 64.1387,-86.71875 11.2708,-6.13435 33.378,-13.47368 49.334,-16.3789 8.6462,-1.57427 22.5424,-2.35887 36.5781,-2.35547 z" />
</svg>
