<?xml version="1.0" encoding="UTF-8"?>
<svg version="1.1" viewBox="0 0 1909 1732.3" xmlns="http://www.w3.org/2000/svg">
<path d="m0 0.76367 0.21484 7.332c0.85272 29.177 7.2685 98.641 13.115 142 20.359 150.98 58.015 303.46 108.66 440 149.99 404.37 410.06 690.1 761.34 836.48l19.332 8.0566 0.33984-133.16c0.18685-73.24 0.18685-193.39 0-267.01l-0.33984-133.85-40 9.0234c-69.483 15.674-80.77 18.526-104.67 26.453-30.762 10.205-40.075 14.377-133.33 59.748-43.633 21.228-79.557 38.395-79.832 38.148-0.82307-0.7366 16.313-25.515 28.51-41.225 48.897-62.979 115.28-124.79 182.29-169.76 37.404-25.095 92.284-54.873 130.7-70.916l17.002-7.1016-0.33594-372.11-0.33593-372.11h-451.33-451.33zm324.5 190c0.63502 0 1.5288 2.3306 1.9844 5.1797 1.2587 7.8714 11.806 27.754 19.947 37.6 16.918 20.461 42.852 34.065 74.82 39.25 15.694 2.5455 46.028 2.5087 61.967-0.07617 42.915-6.9598 77.344-31.13 94.947-66.654l5.6172-11.338 3.0254 2.8418c4.0796 3.8326 11.876 20.028 14.377 29.863 7.2189 28.389 1.7422 55.821-16.623 83.262-19.303 28.842-49.19 47.701-88.908 56.102-17.198 3.6376-55.425 4.6845-73.928 2.0254-45.406-6.5254-82.12-27.312-103.74-58.736-5.8593-8.5163-14.244-26.639-16.623-35.932-2.6427-10.322-2.5956-28.256 0.10351-39.303 3.6107-14.778 18.923-44.084 23.033-44.084zm680.16 108v439.42c0 417.88 0.115 439.39 2.334 438.7 1.2833-0.3975 25.133-6.1402 53-12.762 104.21-24.762 92.84-20.087 269.67-110.88 18.517-9.508 33.668-16.761 33.668-16.119 0 2.1536-20.688 32.799-33.961 50.309-64.727 85.386-147.33 158.29-239.46 211.33-17.152 9.8751-64.119 33.333-77.576 38.746l-7.668 3.084v195.84 195.84l3-0.9434c1.65-0.5193 13.201-5.2947 25.668-10.611 127.81-54.509 238.69-124.13 344.67-216.42 27.202-23.689 94.482-91.085 118.92-119.12 165.13-189.47 283.58-426.76 354.28-709.75 27.984-112.01 47.91-235.48 54.77-339.33 0.7507-11.367 1.7374-24.417 2.1914-29l0.8243-8.332h-452.15-452.16zm449.91 188.79c14.036 0.00339 28.21 0.79446 37.418 2.373 42.764 7.3314 77.541 28.062 98.281 58.586 6.8337 10.058 13.778 24.871 16.348 34.869 4.7459 18.468 1.4389 42.429-8.6543 62.719-6.0834 12.229-14.285 23.304-15.18 20.496-0.3204-1.0058-1.8372-5.7566-3.3711-10.557-4.0453-12.659-11.379-24.4-22.689-36.324-16.463-17.356-37.615-28.376-64.963-33.844-16.699-3.3386-55.404-3.3276-71.102 0.01953-43.787 9.3366-73.75 31.333-91.406 67.102l-5.6153 11.375-3.9726-5.8008c-12.624-18.428-18.741-44.907-15.145-65.561 6.2516-35.899 30.16-68.225 64.139-86.719 11.271-6.1344 33.378-13.474 49.334-16.379 8.6462-1.5743 22.542-2.3589 36.578-2.3555z" fill="#fff" stroke-width="1.3333"/>
</svg>
