<?xml version="1.0" encoding="UTF-8" standalone="no"?>
<!-- Created with Inkscape (http://www.inkscape.org/) -->

<svg
   version="1.1"
   id="svg1"
   width="1908.9773"
   height="1732.2764"
   viewBox="0 0 1908.9773 1732.2764"
   xmlns="http://www.w3.org/2000/svg"
   xmlns:svg="http://www.w3.org/2000/svg">
  <defs
     id="defs1" />
  <g
     id="g1"
     transform="translate(-46,-133.23677)">
    <path
       style="fill:#ffffff;stroke-width:1.33333"
       d="M 1050.6667,1669.6685 V 1473.824 l 7.6666,-3.0837 c 13.4571,-5.4127 60.4242,-28.8703 77.5765,-38.7454 92.1298,-53.0414 174.7363,-125.9421 239.4638,-211.3282 13.2731,-17.5095 33.9597,-48.155 33.9597,-50.3086 0,-0.6423 -15.15,6.6115 -33.6666,16.1195 -176.8262,90.7975 -165.4568,86.1225 -269.6667,110.8842 -27.8667,6.6215 -51.7167,12.3643 -53,12.7618 -2.219,0.6873 -2.3333,-20.8157 -2.3333,-438.70041 V 432 h 452.1553 452.1553 l -0.8253,8.33333 c -0.454,4.58334 -1.4396,17.63334 -2.1903,29 -6.8592,103.85887 -26.7874,227.3241 -54.7712,339.33334 -70.7004,282.98893 -189.1437,520.27793 -354.274,709.75173 -24.4341,28.0361 -91.7144,95.4323 -118.9165,119.1212 -105.977,92.2901 -216.8518,161.9091 -344.6667,216.4183 -12.4666,5.3166 -24.0166,10.0916 -25.6666,10.6109 l -3,0.9443 z m 593.3046,-890.33517 c 10.0932,-20.28977 13.3991,-44.2514 8.6532,-62.71986 -2.5693,-9.99847 -9.514,-24.81064 -16.3477,-34.86826 -20.7404,-30.52436 -55.5164,-51.2549 -98.28,-58.58634 -18.4155,-3.15718 -56.7044,-3.16643 -73.9968,-0.0179 -15.956,2.90523 -38.0625,10.24477 -49.3333,16.37913 -33.979,18.49364 -57.8878,50.81902 -64.1394,86.71824 -3.5966,20.65363 2.5199,47.13347 15.144,65.56135 l 3.9732,5.79971 5.6143,-11.37384 c 17.6563,-35.76887 47.6207,-57.7656 91.4079,-67.10223 15.6974,-3.34713 54.4025,-3.35731 71.1018,-0.0187 27.3475,5.46744 48.4984,16.4864 64.961,33.84266 11.3101,11.92406 18.6449,23.66649 22.6902,36.32524 1.5339,4.80009 3.0512,9.55033 3.3716,10.55608 0.8946,2.80774 9.0966,-8.2661 15.18,-20.49531 z M 929.33333,1559.8173 C 578.04624,1413.4324 317.98569,1127.7046 167.99147,723.33333 117.34468,586.79405 79.688949,434.31624 59.329593,283.33333 53.482879,239.97469 47.06704,170.50993 46.214324,141.33333 L 46,134 h 451.33333 451.33334 l 0.33568,372.11355 0.33569,372.11353 -17.00236,7.10075 C 893.92071,901.37117 839.03975,931.14904 801.63617,956.24411 734.61995,1001.2071 668.24163,1063.0206 619.34419,1126 c -12.19711,15.7097 -29.33386,40.4887 -28.51078,41.2253 0.27496,0.2461 36.19992,-16.9207 79.83326,-38.1484 93.25937,-45.3709 102.57114,-49.5436 133.33333,-59.7486 23.89639,-7.9273 35.18315,-10.7799 104.66667,-26.4536 l 40,-9.023 0.33972,133.8471 c 0.18685,73.6159 0.18685,193.7708 0,267.0109 l -0.33972,133.164 z M 541.65851,500.02988 c 39.7178,-8.40096 69.60524,-27.26019 88.90841,-56.10201 18.36523,-27.44038 23.84192,-54.87199 16.62301,-83.2612 -2.501,-9.8355 -10.29849,-26.03103 -14.37812,-29.86364 l -3.02384,-2.84076 -5.61724,11.33605 c -17.60296,35.52427 -52.03384,59.695 -94.94876,66.65479 -15.93894,2.58492 -46.27177,2.6228 -61.96541,0.0773 -31.96881,-5.18513 -57.90265,-18.78995 -74.82095,-39.25084 -8.14102,-9.84569 -18.68936,-29.72781 -19.94805,-37.59923 C 372.03195,326.3312 371.13963,324 370.50461,324 c -4.1105,0 -19.42229,29.30677 -23.033,44.08519 -2.69908,11.04716 -2.74642,28.97908 -0.10373,39.30134 2.37901,9.29252 10.7632,27.41655 16.62255,35.93282 21.62064,31.4245 58.334,52.2112 103.7405,58.73666 18.50323,2.65915 56.72986,1.61147 73.92763,-2.02613 z M 1062.6667,333.33333 v -74.66666 h 16 16 v 6.13812 6.13812 l 4.7037,-4.12994 c 11.3582,-9.97261 27.2316,-13.34665 42.2502,-8.98062 20.1201,5.84905 32.3411,30.0994 29.6499,58.83432 -1.6925,18.07005 -7.4975,30.49521 -19.1365,40.95968 -8.3635,7.51944 -16.3158,10.37365 -28.9028,10.37365 -8.1181,0 -10.819,-0.62699 -17.2312,-4 -4.1823,-2.2 -7.8432,-4 -8.1354,-4 -0.2922,0 -0.5313,10.8 -0.5313,24 v 24 H 1080 1062.6667 Z m 61.4695,4.95332 c 7.2568,-4.88008 9.7314,-11.51573 9.8027,-26.28665 0.071,-14.815 -2.3859,-21.35296 -9.9389,-26.44312 -3.877,-2.61281 -5.8257,-3.02953 -11.5166,-2.46275 -3.7675,0.37523 -8.7175,1.64795 -11,2.82828 l -4.1501,2.14607 v 23.13584 c 0,25.54663 -0.1905,24.94823 8.9874,28.22327 7.3708,2.63018 12.7168,2.28782 17.8155,-1.14094 z m 204.1971,68.89622 c -1.1858,-0.5254 -1.6666,-4.92042 -1.6666,-15.23483 v -14.49641 l 5.5009,1.94085 c 11.5348,4.06969 25.1913,1.36707 28.9937,-5.73787 1.037,-1.93736 -2.7381,-14.27438 -17.0556,-55.73801 -10.1129,-29.28747 -18.8199,-54.61767 -19.3488,-56.28935 l -0.9616,-3.03941 17.7319,0.37275 17.7319,0.37274 10.7037,33.63826 c 5.8872,18.50105 11.0285,33.65105 11.4253,33.66666 0.397,0.0156 5.497,-15.26417 11.3334,-33.95512 l 10.6118,-33.98352 16.9282,-0.0165 16.9282,-0.0164 -2.4578,7 c -1.3519,3.85 -10.2774,29.58665 -19.8344,57.19256 -9.5571,27.60591 -18.9798,53.35629 -20.9392,57.22309 -4.9748,9.81723 -15.3483,20.35334 -23.6892,24.06064 -5.844,2.59748 -9.5591,3.13744 -23.6024,3.43051 -9.1667,0.19129 -17.4167,0.0155 -18.3334,-0.3906 z m -135.2098,-40.48246 c -6.8531,-2.07033 -11.8732,-6.0301 -14.4852,-11.42558 -2.4734,-5.10944 -2.6383,-8.34067 -2.6383,-51.69579 v -46.24571 h 18 18 v 40.50342 c 0,45.99749 -0.4772,44.06196 10.6744,43.29453 l 6.7514,-0.46461 -0.3795,11.99362 -0.3796,11.99363 -6.6667,1.54504 c -7.7034,1.78533 -23.7067,2.06323 -28.8765,0.50145 z m 62.5474,-0.0672 c -8.0629,-2.0278 -14.9761,-7.46878 -19.0895,-15.02426 -3.2591,-5.98622 -3.7798,-8.41508 -3.7805,-17.6371 0,-16.87412 5.9886,-26.53208 20.5324,-33.10538 4.7168,-2.13183 9.6357,-2.83334 23,-3.28011 18.1503,-0.60677 18.5234,-0.78412 15.5197,-7.37657 -2.9567,-6.48924 -13.5229,-8.61719 -31.3122,-6.30606 -6.5308,0.84846 -12.9241,1.85766 -14.2075,2.24266 -2.1133,0.634 -2.3333,-0.55691 -2.3333,-12.62864 v -13.32866 l 7.6667,-1.73168 c 4.455,-1.00626 16.324,-1.74404 28.3333,-1.76118 19.5009,-0.0279 21.0803,0.16552 28,3.42832 4.0333,1.90181 9.2563,5.4381 11.6067,7.85841 7.2998,7.51717 8.3933,13.18168 8.3933,43.47887 0,14.84272 0.3642,27.93584 0.8093,29.09581 0.4799,1.25067 2.3793,2.10905 4.6667,2.10905 h 3.8573 v 10.58798 c 0,5.82338 -0.4568,10.87029 -1.015,11.21533 -3.1757,1.96265 -17.7834,3.81305 -23.4241,2.96717 -5.0018,-0.75005 -7.5825,-2.12544 -11.6839,-6.22681 l -5.2641,-5.26411 -2.9731,2.85895 c -7.4349,7.14949 -25.1873,10.87489 -37.3022,7.82801 z m 32.3021,-27.44462 5.3603,-2.14478 v -9.85522 -9.85523 h -6.4677 c -8.9346,0 -14.5836,2.25376 -16.9061,6.74501 -2.8532,5.51748 -2.4077,10.26138 1.3132,13.98226 3.8597,3.8597 9.0046,4.20718 16.7003,1.12796 z m 294.1006,26.07804 c -20.2941,-7.18758 -32.4581,-23.55754 -34.8496,-46.89963 -3.0163,-29.43931 14.0208,-54.74619 41.0541,-60.98192 8.1431,-1.87836 24.5682,-1.6616 32.3886,0.42741 26.7858,7.15512 40.2501,26.92368 39.1206,57.43748 -0.4454,12.03364 -0.9892,14.56007 -4.7998,22.30059 -5.37,10.90807 -14.7998,19.92049 -26.64,25.46121 -7.9882,3.73811 -10.4442,4.21796 -23.6311,4.61691 -12.3275,0.37295 -16.0031,-0.0107 -22.6428,-2.36205 z m 29.94,-26.93327 c 6.7083,-4.56561 9.3316,-9.00571 10.9692,-18.56589 1.9104,-11.15302 -1.0544,-24.942 -6.6095,-30.74024 -10.7022,-11.17084 -26.4717,-5.91155 -30.9016,10.30613 -1.8732,6.85744 -1.8637,18.53083 0.02,25.33333 3.9558,14.28191 16.2836,20.63451 26.5215,13.66667 z m 77.7549,28.3516 c -7.7541,-1.64113 -12.6896,-4.43739 -17.4978,-9.91371 -6.8636,-7.81728 -7.3427,-11.22665 -7.9302,-56.43789 l -0.5414,-41.66667 H 1681.8996 1700 v 36.59232 36.59231 l 3.2209,3.74103 c 2.9492,3.4254 3.995,3.74076 12.3964,3.73808 6.5304,-0.003 10.2144,-0.6836 12.7791,-2.36407 L 1732,334.60521 v -37.96925 -37.96927 h 18 18 v 53.33334 53.33333 h -16.6667 -16.6666 v -5.99779 -5.99777 l -6.3334,4.45728 c -11.7521,8.27092 -25.9861,11.55211 -38.5648,8.88988 z m 94.8982,-0.0533 C 1771.7204,364.019 1772,364.40324 1772,349.22377 c 0,-12.35008 0.2001,-13.42492 2.3333,-12.52914 12.8636,5.40181 16.5492,6.37889 24.5259,6.50202 6.9709,0.1076 9.4575,-0.40458 11.6667,-2.40321 6.3381,-5.73425 2.4088,-11.32631 -12.2096,-17.37617 -18.3475,-7.59312 -24.9448,-15.17866 -25.9852,-29.87728 -0.3454,-4.88028 0.031,-11.30508 0.8345,-14.27735 2.06,-7.61224 9.4261,-15.63989 17.7764,-19.37288 6.0771,-2.71675 9.1891,-3.15999 22.3913,-3.18913 8.6427,-0.0191 18.3878,0.7514 22.3334,1.76578 l 7,1.79966 v 13.20034 c 0,7.26019 -0.15,13.20004 -0.3334,13.19968 -0.1833,-3.7e-4 -3.5732,-1.2321 -7.5332,-2.73717 -7.9345,-3.01576 -20.9241,-3.69332 -25.354,-1.32252 -1.835,0.98208 -2.7794,2.79988 -2.7794,5.34981 0,4.4935 3.4817,7.32208 14.6666,11.91536 9.8464,4.04359 18.9106,10.24902 22.3602,15.30803 4.2792,6.27564 5.9714,15.75749 4.3642,24.4518 -3.5484,19.19553 -18.4829,28.52535 -45.1765,28.2226 -7.0847,-0.0804 -15.2812,-0.63041 -18.2145,-1.22237 z m 100,-1.2715 c -14.5842,-4.81992 -27.1502,-17.61046 -31.4467,-32.00841 -2.3677,-7.93457 -3.0492,-27.26161 -1.2784,-36.262 3.2377,-16.45727 13.1608,-30.18073 26.5345,-36.69711 6.7984,-3.31248 8.9382,-3.66885 22.1906,-3.6959 12.2113,-0.0249 15.6985,0.44714 20.8298,2.81982 17.8078,8.234 26.3858,25.99352 26.4771,54.8169 l 0.027,8.33333 h -30.6667 c -28.9616,0 -30.6667,0.13731 -30.6667,2.46949 0,3.94694 5.6522,11.32124 10.6932,13.95154 6.4103,3.34462 26.8196,2.48005 37.3068,-1.58038 4.0334,-1.56162 7.7834,-2.83961 8.3334,-2.83998 0.55,-3.6e-4 1,5.97522 1,13.27909 v 13.27976 l -9,2.90265 c -13.2086,4.25996 -39.242,4.89678 -50.3334,1.2312 z m 30,-68.75958 c 0,-4.43859 -3.3531,-10.8271 -6.5928,-12.56094 -3.7843,-2.02525 -11.0579,-1.66886 -14.4515,0.70808 -3.506,2.4557 -6.9557,8.66483 -6.9557,12.51952 0,2.58144 0.7758,2.73288 14,2.73288 h 14 z M 1440.326,249.66667 1440.6667,134 l 13,-0.38161 13,-0.38162 v 66.71495 c 0,36.69321 0.4105,66.71495 0.9124,66.71495 0.5017,0 3.3952,-1.20195 6.4298,-2.67099 10.3192,-4.99543 26.8922,-8.36333 37.9927,-7.72073 15.9973,0.92606 25.2996,7.52228 29.4763,20.90154 0.9144,2.92902 1.7646,21.18859 2.1648,46.49018 l 0.6589,41.66666 H 1526.1508 1508 v -36.08765 c 0,-36.67195 -0.3773,-39.82021 -5.2177,-43.53661 -3.1404,-2.41106 -16.573,-2.08368 -22.0704,0.53788 L 1476,288.49389 v 38.41972 38.41972 h -18.0073 -18.0074 z m -282.3198,-21.0574 c -7.3592,-2.80371 -16.1487,-11.80668 -18.6267,-19.07907 -1.1254,-3.30288 -2.0462,-9.99076 -2.0462,-14.86196 0,-23.05175 18.5074,-37.65499 42.5836,-33.60055 16.3542,2.75404 26.5687,14.01148 27.7411,30.57362 1.1483,16.22094 -4.4554,27.40709 -17.2061,34.34688 -8.6266,4.6952 -23.7869,5.91989 -32.4457,2.62108 z m 21.7932,-18.39576 c 6.7629,-7.19872 6.837,-22.44888 0.1417,-29.14416 -11.4246,-11.42464 -24.9959,6.75382 -17.8976,23.97348 1.1238,2.72644 3.0385,5.70717 4.2548,6.62384 3.624,2.73133 10.2389,2.01934 13.5011,-1.45316 z m 116.2954,18.11776 c -9.0681,-4.62391 -10.0415,-7.43179 -10.5478,-30.4257 l -0.453,-20.57224 -4.8803,9e-4 -4.8804,9e-4 0.1745,-7.66757 0.1744,-7.66756 4.8256,-0.41383 4.8255,-0.41381 v -9.25285 -9.25284 H 1296.6667 1308 V 152 v 9.33333 h 8 8 v 8 8 h -8 -8 v 17.30794 17.30793 l 3.3421,0.83881 c 1.8382,0.46135 5.4382,0.44559 8,-0.0351 L 1324,211.87916 v 8.55263 8.55264 l -5,0.82644 c -9.0471,1.4954 -18.2348,0.9019 -22.9052,-1.4796 z m 253.1381,0.2701 c -6.945,-2.13978 -15.3465,-9.6188 -18.036,-16.05554 -4.7106,-11.2743 -3.4218,-28.67603 2.8247,-38.13879 6.586,-9.97695 22.1672,-15.55421 38.5517,-13.79957 l 8.76,0.93812 v 9.00014 9.00015 l -7.3086,-1.32473 c -14.903,-2.70126 -22.4056,3.0289 -22.4056,17.11218 0,12.99068 6.4301,19.03314 18.7297,17.60032 3.4748,-0.4048 7.6679,-1.15045 9.3179,-1.657 2.8978,-0.88962 3,-0.62589 3,7.74288 v 8.6639 l -5.9238,1.49162 c -7.902,1.98974 -20.0094,1.73726 -27.51,-0.57368 z m 55.4338,0.0588 c -9.4308,-3.34112 -13.8427,-11.8431 -12.2619,-23.62916 0.8049,-6.00165 3.7904,-10.72865 9.4411,-14.9486 2.9036,-2.1685 6.1244,-2.84532 15.2509,-3.20492 6.3635,-0.25072 12.0935,-0.95436 12.7335,-1.56364 0.6482,-0.61704 -0.3586,-2.63001 -2.2727,-4.54413 -3.7359,-3.73591 -9.7929,-4.33601 -22.5576,-2.23492 l -6.3333,1.04247 v -8.37359 -8.37359 L 1605,161.75296 c 3.4833,-0.59241 11.7333,-1.03669 18.3333,-0.98728 9.7004,0.0727 13.1052,0.66165 17.767,3.07365 8.9816,4.64716 10.8345,10.09332 10.8704,31.95219 0.028,16.65735 0.1993,17.83595 2.696,18.48884 2.2104,0.57803 2.6666,1.81869 2.6666,7.25036 0,7.67111 -1.0977,8.45983 -11.7821,8.46552 -6.1399,0.003 -7.5552,-0.50741 -10.3227,-3.72479 l -3.207,-3.72858 -2.9392,2.73817 c -5.6158,5.23187 -15.3739,6.5824 -24.4156,3.37913 z m 23.8424,-17.04665 c 1.7185,-1.25671 2.236,-3.14175 1.9214,-7 -0.4292,-5.26416 -0.4474,-5.27983 -6.0244,-5.17045 -3.0766,0.0604 -6.5266,0.8838 -7.6666,1.82992 -2.4583,2.04017 -2.7366,8.19664 -0.4728,10.46037 2.1138,2.11385 9.2836,2.04367 12.2424,-0.11987 z m 135.8728,18.11856 c -4.6098,-0.89256 -10.6364,-7.36293 -12.241,-13.14232 -0.8026,-2.89103 -1.4628,-12.9064 -1.4668,-22.2564 l -0.01,-17.00003 H 1746 h -4.6667 v -8 -8 h 4.6667 4.6667 V 152 142.66667 H 1762 1773.3333 V 152 v 9.33333 h 8 8 v 8 8 h -8 -8 v 16.50342 c 0,19.25209 0.5671,20.32957 10.0186,19.0341 l 5.9814,-0.81984 v 8.46671 8.46671 l -5,0.82644 c -5.3722,0.88798 -15.1578,0.84933 -19.9514,-0.0788 z m 52.0201,-1.17919 c -7.4835,-2.75737 -15.6951,-11.21366 -18.2929,-18.8382 -2.4826,-7.28596 -2.7439,-19.95338 -0.5616,-27.23674 2.1234,-7.08759 9.2069,-14.96458 16.7894,-18.67031 8.9887,-4.39296 25.0066,-4.39177 33.998,0.003 7.9036,3.86264 13.8206,10.88614 16.37,19.43188 5.4054,18.11778 -0.6246,34.60302 -15.6481,42.77978 -8.598,4.67966 -23.656,5.8468 -32.6548,2.53108 z m 22.6877,-19.17326 c 4.2274,-5.02384 5.5015,-12.51779 3.4878,-20.5146 -4.634,-18.40371 -23.9108,-13.13271 -23.9108,6.53814 0,5.60854 3.231,13.95184 6.2982,16.26352 4.0751,3.07128 10.4902,2.03258 14.1248,-2.28706 z M 1073,228.27725 l -10.3333,-0.38942 v -33.27724 -33.27726 h 10 10 v 3.94494 3.94492 l 6.7637,-4.20456 c 5.8189,-3.61723 8.0401,-4.21487 15.9011,-4.27827 10.4881,-0.0845 15.0824,2.33859 18.9998,10.02108 1.9891,3.90091 2.3315,8.48561 2.3333,31.23856 v 26.66667 h -10.6667 -10.6667 v -21.60394 c 0,-13.31088 -0.5825,-22.88242 -1.5175,-24.9345 -1.8801,-4.12648 -7.5178,-5.5401 -13.8112,-3.46308 l -4.6719,1.54165 v 23.81792 c 0,13.09984 -0.45,24.00331 -1,24.22992 -0.55,0.22661 -5.65,0.23679 -11.3333,0.0227 z m 156,0 -10.3333,-0.38942 v -33.27724 -33.27726 h 10 10 v 6 c 0,3.3 0.3636,6 0.8081,6 0.4444,0 1.9543,-1.45714 3.3552,-3.23809 3.492,-4.43935 10.1808,-8.3546 16.17,-9.46501 l 5,-0.927 v 10.66366 10.66366 l -6.2834,0.94226 c -3.4559,0.51824 -8.5559,1.85151 -11.3334,2.96283 l -5.0499,2.02057 v 20.4432 c 0,11.24376 -0.45,20.62862 -1,20.85523 -0.55,0.22661 -5.65,0.23679 -11.3333,0.0227 z M 1337.3311,181 v -47.66667 h 10.6666 10.6667 V 150 c 0,9.16667 0.3239,16.66667 0.7197,16.66667 0.3959,0 3.2459,-1.32782 6.3334,-2.95068 7.7986,-4.09924 21.8166,-4.23474 27.1825,-0.26275 7.0807,5.24137 7.7269,8.20213 8.196,37.54676 l 0.4316,27 h -10.0983 c -5.554,0 -10.5482,0.15 -11.0982,0.33333 -0.55,0.18334 -1.3,-10.44476 -1.6667,-23.618 l -0.6667,-23.95133 -3.6136,-2.02583 c -3.2094,-1.79918 -4.2536,-1.80462 -9.3333,-0.0487 l -5.7175,1.97716 -0.6666,24 -0.6667,24 h -10.3356 -10.3355 V 181 Z m 331.2184,47.11111 C 1668.2473,227.80556 1668,212.65556 1668,194.44444 v -33.11111 h 10.6667 10.6666 v 4.11852 4.11854 l 3.922,-3.30018 c 7.5931,-6.38912 23.7359,-7.84346 31.3903,-2.82802 6.7137,4.39897 7.8977,9.75289 8.4527,38.22448 L 1733.6116,228 h -11.4725 -11.4724 v -22.66667 c 0,-21.30341 -0.1698,-22.83636 -2.8215,-25.48813 -2.2377,-2.2378 -3.9036,-2.67632 -8.0523,-2.11985 -9.1068,1.22146 -9.1262,1.27904 -9.1262,27.00305 v 23.06855 l -10.7839,0.43485 c -5.9311,0.23917 -11.0311,0.18487 -11.3333,-0.12067 z m 219.1172,0.16614 -10.3334,-0.38942 v -33.27724 -33.27726 h 10 10 v 3.94494 3.94492 l 6.8823,-4.27826 c 5.9417,-3.69362 8.0908,-4.27826 15.7253,-4.27826 9.7088,0 14.2927,2.06784 18.3739,8.28874 2.0197,3.07864 2.4119,7.54836 2.7765,31.6481 l 0.4247,28.06316 H 1930.758 1920 v -22.39394 c 0,-21.9985 -0.057,-22.45173 -3.2727,-25.66666 -3.615,-3.61506 -6.2542,-3.99614 -12.5284,-1.80896 L 1900,180.26087 v 23.79088 c 0,13.08497 -0.45,23.97628 -1,24.20289 -0.55,0.22661 -5.65,0.23679 -11.3333,0.0227 z"
       id="path1" />
  </g>
</svg>
