<?xml version="1.0" encoding="UTF-8"?>
<svg version="1.1" viewBox="0 0 1909 1732.3" xmlns="http://www.w3.org/2000/svg">
<path d="m1420.7 0-13 0.38086-13 0.38281-0.3398 115.67-0.3418 115.67h36.016v-76.838l4.7109-2.248c5.4974-2.6216 18.932-2.9482 22.072-0.53711 4.8404 3.7164 5.2168 6.8652 5.2168 43.537v36.086h36.301l-0.6582-41.666c-0.4002-25.302-1.2497-43.561-2.1641-46.49-4.1767-13.379-13.479-19.974-29.476-20.9-11.1-0.6426-27.673 2.7253-37.992 7.7207-3.0346 1.469-5.93 2.6699-6.4317 2.6699-0.5019 0-0.9121-30.022-0.9121-66.715zm-129.33 0.095703v95.334h20.668l0.666-24 0.668-24 5.7168-1.9766c5.0797-1.7559 6.1246-1.7504 9.334 0.04883l3.6132 2.0254 0.6661 23.951c0.3667 13.173 1.1179 23.801 1.6679 23.617 0.55-0.18333 5.5437-0.33203 11.098-0.33203h10.098l-0.4316-27c-0.4691-29.345-1.1146-32.306-8.1953-37.547-5.3659-3.972-19.385-3.8375-27.184 0.26172-3.0875 1.6229-5.9361 2.9512-6.332 2.9512-0.3958 0-0.7207-7.4994-0.7207-16.666v-16.668h-10.666zm-51.998 9.334v18.506l-9.6524 0.82812-0.1738 7.668-0.1738 7.666h4.8789l4.8809-2e-3 0.4531 20.572c0.5063 22.994 1.4807 25.802 10.549 30.426 4.6704 2.3815 13.857 2.9759 22.904 1.4805l5-0.82617v-17.105l-4.6582 0.87305c-2.5618 0.48069-6.1618 0.49651-8 0.03516l-3.3418-0.83785v-34.617h16v-16h-16v-18.666h-11.334zm465.33 0v18.666h-9.332v16h9.3301l0.01 17c0 9.35 0.6642 19.367 1.4668 22.258 1.6046 5.7794 7.6324 12.25 12.242 13.143 4.7936 0.92813 14.579 0.9661 19.951 0.07813l5-0.82617v-16.934l-5.9824 0.82031c-9.4515 1.2955-10.018 0.21691-10.018-19.035v-16.504h16v-16h-16v-18.666h-11.334zm-486.67 17.037-5 0.92578c-5.9892 1.1104-12.678 5.0275-16.17 9.4668-1.4009 1.7809-2.9111 3.2363-3.3555 3.2363-0.4445 0-0.8086-2.7-0.8086-6v-6h-20v66.555l10.334 0.39062c5.6833 0.21409 10.784 0.20317 11.334-0.02344 0.55-0.22661 1-9.6117 1-20.855v-20.443l5.0488-2.0195c2.7775-1.1113 7.8781-2.4447 11.334-2.9629l6.2832-0.94336v-10.662zm-92.826 0.69922c-19.672 0.39415-33.84 14.095-33.84 34.266 0 4.8712 0.9195 11.558 2.0449 14.861 2.478 7.2724 11.268 16.276 18.627 19.08 8.6588 3.2988 23.819 2.0741 32.445-2.6211 12.751-6.9398 18.355-18.127 17.207-34.348-1.1724-16.562-11.388-27.82-27.742-30.574-3.0095-0.5068-5.9319-0.72037-8.7422-0.66406zm660.16 0.11133c-6.252-5.24e-4 -12.504 1.0965-16.998 3.293-7.5825 3.7057-14.666 11.582-16.789 18.67-2.1823 7.2834-1.9201 19.952 0.5625 27.238 2.5978 7.6245 10.81 16.081 18.293 18.838 8.9988 3.3157 24.056 2.1484 32.654-2.5312 15.024-8.1768 21.054-24.662 15.648-42.779-2.5494-8.5457-8.4675-15.569-16.371-19.432-4.4957-2.1974-10.748-3.2964-17-3.2969zm-122.41 0.06445c-5.9416 0.53529-11.875 2.4968-15.672 5.6914l-3.9219 3.3008v-8.2383h-21.334v33.111c0 18.211 0.2466 33.362 0.5488 33.668 0.3022 0.30554 5.4029 0.35831 11.334 0.11914l10.783-0.43359v-23.068c0-25.724 0.02-25.782 9.127-27.004 4.1487-0.55647 5.815-0.1167 8.0527 2.1211 2.6517 2.6518 2.8203 4.1829 2.8203 25.486v22.668h22.945l-0.5136-26.334c-0.555-28.472-1.7375-33.826-8.4512-38.225-3.8272-2.5077-9.7771-3.3986-15.719-2.8633zm-136.35 0.0293c-16.384-1.7546-31.967 3.8219-38.553 13.799-6.2465 9.4628-7.5348 26.864-2.8242 38.139 2.6895 6.4367 11.09 13.917 18.035 16.057 7.5006 2.3109 19.608 2.562 27.51 0.57227l5.9238-1.4902v-8.6641c0-8.3688-0.1022-8.6338-3-7.7441-1.65 0.50655-5.8416 1.2534-9.3164 1.6582-12.3 1.4328-18.73-4.6109-18.73-17.602 0-14.083 7.5033-19.813 22.406-17.111l7.3086 1.3242v-18zm347.37 0.05859c-7.6345-1e-6 -9.7849 0.58568-15.727 4.2793l-6.8808 4.2773v-7.8906h-20v66.555l10.332 0.39062c5.6833 0.21409 10.784 0.20317 11.334-0.02344 0.55-0.22661 1-11.118 1-24.203v-23.791l4.1992-1.4629c6.2742-2.1872 8.9124-1.8065 12.527 1.8086 3.2157 3.2149 3.2734 3.6675 3.2734 25.666v22.395h21.516l-0.4238-28.062c-0.3646-24.1-0.7576-28.57-2.7773-31.648-4.0812-6.2209-8.6643-8.2891-18.373-8.2891zm-814.61 0.07422c-7.861 0.0634-10.083 0.66012-15.902 4.2773l-6.7637 4.2051v-7.8906h-20v66.555l10.334 0.39062c5.6821 0.21398 10.78 0.20313 11.33-0.02344 0.55-0.22661 1-11.131 1-24.23v-23.816l4.6719-1.543c6.2933-2.077 11.932-0.66358 13.812 3.4629 0.935 2.0521 1.5175 11.625 1.5175 24.936v21.604h21.332v-26.666c-0-22.753-0.343-27.337-2.3321-31.238-3.9174-7.6825-8.5119-10.106-19-10.021zm518 0.02539c-6.6-0.04941-14.851 0.39392-18.334 0.98633l-6.334 1.0781v16.746l6.334-1.041c12.765-2.1011 18.821-1.5015 22.557 2.2344 1.9141 1.9141 2.9217 3.9259 2.2735 4.543-0.64 0.60928-6.369 1.3137-12.732 1.5645-9.1265 0.3596-12.348 1.0366-15.252 3.2051-5.6507 4.2199-8.6365 8.9476-9.4414 14.949-1.5808 11.786 2.8309 20.288 12.262 23.629 9.0417 3.2033 18.8 1.853 24.416-3.3789l2.9395-2.7383 3.207 3.7285c2.7675 3.2174 4.1824 3.7276 10.322 3.7246 10.684-0.0057 11.783-0.79374 11.783-8.4648 0-5.4317-0.4576-6.6739-2.668-7.252-2.4967-0.65289-2.6673-1.8309-2.6953-18.488-0.036-21.859-1.8895-27.304-10.871-31.951-4.6618-2.412-8.0652-3.0015-17.766-3.0742zm-452.01 16.809c2.768-0.3667 5.7591 0.63798 8.6152 3.4941 6.6953 6.6953 6.6203 21.946-0.1426 29.145-3.2622 3.4725-9.876 4.1845-13.5 1.4531-1.2163-0.91667-3.132-3.8966-4.2558-6.623-5.3238-12.915 0.9792-26.369 9.2832-27.469zm661.65 0.08398c4.0673 0.73198 7.8658 4.3056 9.6035 11.207 2.0137 7.9968 0.7391 15.49-3.4883 20.514-3.6346 4.3196-10.05 5.3584-14.125 2.2871-3.0672-2.3117-6.2988-10.655-6.2988-16.264 0-12.294 7.5298-18.964 14.309-17.744zm-208.57 21.785c5.577-0.10938 5.5943-0.09423 6.0235 5.1699 0.3146 3.8582-0.2014 5.7433-1.9199 7-2.9588 2.1635-10.128 2.233-12.242 0.11914-2.2638-2.2637-1.9857-8.4188 0.4726-10.459 1.14-0.94612 4.5895-1.7697 7.666-1.8301zm-494.12 56.547c-11.333-0.42551-22.392 3.3428-30.91 10.822l-4.7051 4.1309v-12.277h-32v149.33h34.668v-24c0-13.2 0.239-24 0.5312-24s3.9525 1.8 8.1348 4c6.4122 3.373 9.1124 4 17.23 4 12.587 0 20.541-2.8556 28.904-10.375 11.639-10.464 17.442-22.889 19.135-40.959 2.6912-28.735-9.5283-52.985-29.648-58.834-3.7547-1.0915-7.5623-1.7-11.34-1.8418zm474.31 0.12109c-6.1018-0.0805-12.245 0.33426-16.316 1.2734-27.033 6.2357-44.069 31.543-41.053 60.982 2.3915 23.342 14.556 39.711 34.85 46.898 6.6397 2.3513 10.315 2.7362 22.643 2.3633 13.187-0.39895 15.643-0.87908 23.631-4.6172 11.84-5.5407 21.271-14.553 26.641-25.461 3.8106-7.7405 4.3534-10.267 4.7988-22.301 1.1295-30.514-12.335-50.282-39.121-57.438-3.9102-1.0445-9.9705-1.6206-16.072-1.7012zm-324.59 0.58399c-12.009 0.0171-23.879 0.75546-28.334 1.7617l-7.666 1.7324v13.328c0 12.072 0.2207 13.263 2.334 12.629 1.2834-0.385 7.6762-1.3957 14.207-2.2441 17.789-2.3111 28.356-0.1826 31.312 6.3066 3.0037 6.5924 2.6308 6.7702-15.52 7.377-13.364 0.44677-18.283 1.1475-23 3.2793-14.544 6.5733-20.533 16.231-20.533 33.105 7e-4 9.222 0.5221 11.652 3.7812 17.639 4.1134 7.5555 11.027 12.996 19.09 15.023 12.115 3.0469 29.866-0.67864 37.301-7.8281l2.9726-2.8594 5.2656 5.2637c4.1014 4.1014 6.6818 5.4785 11.684 6.2285 5.6407 0.84588 20.248-1.0061 23.424-2.9688 0.5582-0.34504 1.0156-5.3915 1.0156-11.215v-10.588h-3.8574c-2.2874 0-4.1881-0.85871-4.668-2.1094-0.4451-1.16-0.8086-14.253-0.8086-29.096 0-30.297-1.0928-35.961-8.3926-43.479-2.3504-2.4203-7.5741-5.9556-11.607-7.8574-6.9197-3.2628-8.4991-3.4576-28-3.4297zm620.67 2e-3c-13.252 0.0271-15.391 0.38283-22.189 3.6953-13.374 6.5164-23.298 20.24-26.535 36.697-1.7708 9.0004-1.0884 28.327 1.2793 36.262 4.2965 14.398 16.861 27.188 31.445 32.008 11.091 3.6656 37.123 3.0295 50.332-1.2305l9-2.9024v-13.281c0-7.3039-0.45-13.278-1-13.277-0.55 3.7e-4 -4.2986 1.2782-8.332 2.8398-10.487 4.0604-30.896 4.9247-37.307 1.5801-5.041-2.6303-10.693-10.004-10.693-13.951 0-2.3322 1.7044-2.4707 30.666-2.4707h30.668l-0.027-8.332c-0.091-28.823-8.6688-46.584-26.477-54.818-5.1313-2.3727-8.6188-2.8433-20.83-2.8184zm-87.332 2e-3c-13.202 0.0291-16.316 0.47271-22.393 3.1894-8.3503 3.733-15.715 11.761-17.775 19.373-0.8035 2.9723-1.1794 9.3971-0.834 14.277 1.0404 14.699 7.6369 22.284 25.984 29.877 14.618 6.0498 18.547 11.643 12.209 17.377-2.2092 1.9986-4.6951 2.5099-11.666 2.4023-7.9767-0.12313-11.662-1.1001-24.525-6.502-2.1332-0.89578-2.334 0.17923-2.334 12.529 0 15.179-0.2803 14.796 12.666 17.408 2.9333 0.59196 11.13 1.1423 18.215 1.2227 26.694 0.30275 41.629-9.0272 45.178-28.223 1.6072-8.6943-0.086-18.176-4.3652-24.451-3.4496-5.059-12.513-11.265-22.359-15.309-11.185-4.5933-14.668-7.4225-14.668-11.916 0-2.5499 0.9443-4.3675 2.7793-5.3496 4.4299-2.3708 17.421-1.6935 25.356 1.3223 3.96 1.5051 7.3499 2.7379 7.5332 2.7383 0.1834 3.6e-4 0.332-5.939 0.332-13.199v-13.201l-7-1.7988c-3.9456-1.0144-13.689-1.7867-22.332-1.7676zm-637.33 0.63272v46.246c0 43.355 0.1653 46.586 2.6387 51.695 2.612 5.3955 7.6313 9.3554 14.484 11.426 5.1698 1.5618 21.174 1.2853 28.877-0.5l6.666-1.5449 0.3809-11.994 0.3789-11.994-6.752 0.46484c-11.152 0.76743-10.674 2.7025-10.674-43.295v-40.504h-18zm147.79 1.2559 0.9629 3.0391c0.5289 1.6717 9.2348 27.002 19.348 56.289 14.318 41.464 18.094 53.801 17.057 55.738-3.8024 7.1049-17.459 9.808-28.994 5.7383l-5.502-1.9414v14.496c0 10.314 0.4822 14.709 1.668 15.234 0.9167 0.4061 9.1653 0.58192 18.332 0.39063 14.043-0.29307 17.76-0.83221 23.604-3.4297 8.3409-3.7073 18.715-14.243 23.69-24.061 1.9594-3.8668 11.382-29.617 20.939-57.223 9.557-27.606 18.482-53.343 19.834-57.193l2.4571-7-16.928 0.0176-16.928 0.0156-10.613 33.984c-5.8364 18.691-10.935 33.971-11.332 33.955-0.3968-0.0156-5.5386-15.167-11.426-33.668l-10.703-33.639-17.732-0.37109zm340 0.0781 0.541 41.666c0.5875 45.211 1.0681 48.622 7.9317 56.439 4.8082 5.4763 9.742 8.271 17.496 9.9121 12.579 2.6622 26.814-0.61776 38.566-8.8887l6.332-4.457v11.994h33.334v-106.67h-36v75.939l-3.6035 2.3613c-2.5647 1.6805-6.2489 2.3603-12.779 2.3633-8.4014 3e-3 -9.4473-0.31288-12.396-3.7383l-3.2207-3.7402v-73.186h-18.1zm236.9 24.076c2.7156-0.13306 5.4809 0.28425 7.373 1.2969 3.2397 1.7338 6.5918 8.122 6.5918 12.561v3.4004h-14c-13.224 0-14-0.15098-14-2.7324 0-3.8547 3.4511-10.064 6.957-12.52 1.6968-1.1885 4.3625-1.8728 7.0782-2.0059zm-788.22 0.35156c5.6909-0.56678 7.6386-0.14991 11.516 2.4629 7.553 5.0902 10.01 11.628 9.9395 26.443-0.071 14.771-2.546 21.407-9.8028 26.287-5.0987 3.4288-10.446 3.7708-17.816 1.1406-9.1779-3.275-8.9863-2.678-8.9863-28.225v-23.135l4.1504-2.1465c2.2825-1.1803 7.2325-2.4529 11-2.8281zm490.58 8e-3c4.5733-0.14336 9.2992 1.7367 13.312 5.9258 5.5551 5.7982 8.5198 19.587 6.6094 30.74-1.6376 9.5602-4.2604 13.999-10.969 18.564-10.238 6.9678-22.566 0.61588-26.522-13.666-1.8837-6.8025-1.8927-18.477-0.019-25.334 2.7686-10.136 9.9657-15.992 17.588-16.23zm-316.2 34.23h6.4688v19.711l-5.3613 2.1445c-7.6957 3.0792-12.84 2.7327-16.699-1.127-3.7209-3.7209-4.1676-8.465-1.3144-13.982 2.3225-4.4912 7.9716-6.7461 16.906-6.7461z"/>
<path d="m3.4e-4 0.38234 0.21484 7.332c0.85272 29.177 7.2685 98.641 13.115 142 20.359 150.98 58.015 303.46 108.66 440 149.99 404.37 410.06 690.1 761.34 836.48l19.332 8.0566 0.3398-133.16c0.1869-73.24 0.1869-193.39 0-267.01l-0.3398-133.85-40 9.0234c-69.483 15.674-80.77 18.526-104.67 26.453-30.762 10.205-40.075 14.377-133.33 59.748-43.633 21.228-79.557 38.394-79.832 38.148-0.8231-0.7366 16.313-25.515 28.51-41.225 48.897-62.979 115.28-124.79 182.29-169.76 37.404-25.095 92.284-54.873 130.7-70.916l17.002-7.1016-0.336-372.11-0.3359-372.11h-451.33zm324.5 190c0.635 0 1.5288 2.3306 1.9844 5.1797 1.2587 7.8714 11.806 27.754 19.947 37.6 16.918 20.461 42.852 34.065 74.82 39.25 15.694 2.5455 46.028 2.5087 61.967-0.0762 42.915-6.9598 77.344-31.13 94.947-66.654l5.6172-11.338 3.0254 2.8418c4.0796 3.8326 11.876 20.028 14.377 29.863 7.219 28.389 1.7422 55.821-16.623 83.262-19.303 28.842-49.19 47.701-88.908 56.102-17.198 3.6376-55.424 4.6845-73.928 2.0254-45.406-6.5254-82.12-27.312-103.74-58.736-5.8593-8.5163-14.244-26.639-16.623-35.932-2.6427-10.322-2.5956-28.256 0.1035-39.303 3.6107-14.778 18.923-44.084 23.033-44.084z" fill="#d18429" stroke-width="1.3333"/>
<path d="m1004.7 298.38v439.42c0 417.88 0.115 439.39 2.334 438.7 1.2833-0.3975 25.133-6.1402 53-12.762 104.21-24.762 92.84-20.087 269.67-110.88 18.516-9.508 33.668-16.761 33.668-16.119 0 2.1536-20.688 32.799-33.961 50.309-64.727 85.386-147.33 158.29-239.46 211.33-17.152 9.8751-64.119 33.333-77.576 38.746l-7.6679 3.084v391.69l3-0.9434c1.65-0.5193 13.201-5.2947 25.668-10.611 127.81-54.509 238.69-124.13 344.67-216.42 27.202-23.689 94.482-91.085 118.92-119.12 165.13-189.47 283.58-426.76 354.28-709.75 27.984-112.01 47.91-235.48 54.77-339.33 0.7507-11.367 1.7374-24.417 2.1914-29l0.8243-8.332h-452.15zm449.91 188.79c14.036 3e-3 28.21 0.79446 37.418 2.373 42.764 7.3314 77.541 28.062 98.281 58.586 6.8337 10.058 13.778 24.871 16.348 34.869 4.7459 18.468 1.439 42.429-8.6543 62.719-6.0834 12.229-14.285 23.304-15.18 20.496-0.3204-1.0058-1.8372-5.7566-3.3711-10.557-4.0453-12.659-11.379-24.4-22.689-36.324-16.463-17.356-37.615-28.376-64.963-33.844-16.699-3.3386-55.404-3.3276-71.102 0.0195-43.787 9.3366-73.75 31.333-91.406 67.102l-5.6153 11.375-3.9726-5.8008c-12.624-18.428-18.741-44.907-15.145-65.561 6.2516-35.899 30.16-68.225 64.139-86.719 11.271-6.1344 33.378-13.474 49.334-16.379 8.6462-1.5743 22.542-2.3589 36.578-2.3555z" fill="#14a2d0" stroke-width="1.3333"/>
</svg>
